PathFileType	4	(X/Y/Z)	..\data\2014029\dynamic\2014029_C5_05.trc
DataRate	CameraRate	NumFrames	NumMarkers	Units	OrigDataRate	OrigDataStartFrame	OrigNumFrames
100.000000	100.000000	4	52	mm	100.000000	86	172
Frame#	Time	L_IAS			L_IPS			R_IPS			R_IAS			L_FTC			L_FLE			L_FME			L_FAX			L_TTC			L_FAL			L_TAM			L_FCC			L_FM1			L_FM2			L_FM5			R_FTC			R_FLE			R_FME			R_FAX			R_TTC			R_FAL			R_TAM			R_FCC			R_FM1			R_FM2			R_FM5			CV7			TV10			SXS			SJN			L_SIA			L_SRS			L_SAA			L_SAE			L_HLE			L_HME			L_UOA			L_RSP			L_UHE			L_HM2			L_HM5			R_SIA			R_SRS			R_SAA			R_SAE			R_HLE			R_HME			R_UOA			R_RSP			R_UHE			R_HM2			R_HM5			
		X1	Y1	Z1	X2	Y2	Z2	X3	Y3	Z3	X4	Y4	Z4	X5	Y5	Z5	X6	Y6	Z6	X7	Y7	Z7	X8	Y8	Z8	X9	Y9	Z9	X10	Y10	Z10	X11	Y11	Z11	X12	Y12	Z12	X13	Y13	Z13	X14	Y14	Z14	X15	Y15	Z15	X16	Y16	Z16	X17	Y17	Z17	X18	Y18	Z18	X19	Y19	Z19	X20	Y20	Z20	X21	Y21	Z21	X22	Y22	Z22	X23	Y23	Z23	X24	Y24	Z24	X25	Y25	Z25	X26	Y26	Z26	X27	Y27	Z27	X28	Y28	Z28	X29	Y29	Z29	X30	Y30	Z30	X31	Y31	Z31	X32	Y32	Z32	X33	Y33	Z33	X34	Y34	Z34	X35	Y35	Z35	X36	Y36	Z36	X37	Y37	Z37	X38	Y38	Z38	X39	Y39	Z39	X40	Y40	Z40	X41	Y41	Z41	X42	Y42	Z42	X43	Y43	Z43	X44	Y44	Z44	X45	Y45	Z45	X46	Y46	Z46	X47	Y47	Z47	X48	Y48	Z48	X49	Y49	Z49	X50	Y50	Z50	X51	Y51	Z51	X52	Y52	Z52	

87	0.86	-117.5065307617188	1065.709838867188	98.79739379882814	-324.7933349609376	1054.134033203125	161.8737182617188	-331.451629638672	1049.837890625	262.9316711425781	-133.9785461425782	1070.747802734375	347.8652648925782	-187.913803100586	970.0560302734377	29.14329719543456	-166.3817291259766	516.3103027343751	86.64288330078125	-173.3588409423829	497.1058654785157	211.2871551513672	-182.9374694824219	448.7413940429689	80.74674224853514	-123.1443023681641	444.4922180175782	150.1713409423828	-225.6172027587891	79.2727508544922	125.3857879638672	-200.6610107421876	91.08442687988283	225.1513366699219	-277.6877441406251	20.45215797424317	167.7040557861328	-56.80746841430668	16.75775527954102	207.619125366211	-63.09150314331058	36.55715942382813	152.827621459961	-117.179931640625	15.63077640533448	95.12095642089844	-228.8192443847657	950.6719970703127	403.6822509765626	-64.03051757812506	530.6000976562501	388.5440979003907	-53.46361923217778	511.4688415527345	260.1494445800782	-110.3620529174805	486.5477600097657	390.8175354003907	-44.41452407836919	445.7098083496095	332.9635009765626	-366.043914794922	227.2336578369141	335.5740966796875	-329.9165344238282	215.0063781738282	239.6357574462891	-440.727752685547	213.2552490234376	282.3094787597656	-284.8518676757814	74.35664367675783	257.4819030761719	-283.4947509765626	89.7079315185547	311.6708984375	-314.7911682128907	91.50323486328126	358.7702331542969	-247.0463256835938	1595.24560546875	183.7868041992188	-338.1518859863282	1329.152099609375	198.0677642822266	-85.07907867431645	1301.660034179688	213.4394989013672	-121.185646057129	1493.749267578125	199.4988250732422	-356.6309204101563	1361.126098632813	96.20668029785155	-309.5314025878907	1511.269653320313	83.172737121582	-254.1365203857422	1501.073120117188	-25.63897514343266	-197.144027709961	1501.1337890625	-30.20647811889652	-213.4720611572266	1143.122314453125	-101.6526794433594	-246.1401062011719	1136.1552734375	-8.257791519165071	-253.9547882080079	1126.6259765625	-54.96922302246098	-89.71753692626953	879.9548339843752	-65.60251617431643	-161.9528503417969	884.894470214844	-121.2455596923829	-57.97346496582032	799.3171997070315	-63.16846847534182	-150.0517730712891	799.135437011719	-132.7833404541016	-366.0709838867189	1372.927368164063	285.7589416503906	-322.7395324707032	1520.39111328125	284.8712768554688	-283.7568664550782	1528.661743164063	394.7003173828126	-232.7245330810548	1535.068603515625	411.6070861816407	-288.6323242187501	1189.186767578125	498.2955932617188	-300.3121032714845	1168.65576171875	407.0584411621094	-315.7742004394532	1169.657348632813	463.7329406738282	-162.0690307617188	923.489196777344	495.550262451172	-243.853729248047	931.7906494140627	542.7826538085939	-142.7535247802735	832.228210449219	496.2869567871095	-247.537322998047	843.9846191406252	553.4421997070314	
88	0.87	-105.607894897461	1065.393432617188	97.50429534912111	-312.4714355468751	1054.064331054688	162.366943359375	-318.787567138672	1050.164428710938	263.4304809570312	-120.8326950073243	1071.419555664063	346.5404052734376	-177.1404113769532	969.5466308593752	28.78536224365233	-162.791488647461	515.9382324218751	86.24079895019531	-170.3487854003907	496.826141357422	210.7806701660157	-180.102523803711	448.6126403808595	80.31191253662108	-120.2812957763672	443.8479309082032	149.8207702636719	-225.3071594238282	79.40903472900392	125.4825668334961	-200.5643310546876	91.14392852783205	225.2935638427735	-277.5748291015626	20.77006149291993	167.783447265625	-56.65088272094731	16.68595886230469	207.6507110595704	-62.8979644775391	36.50924682617188	152.8110504150391	-117.1290740966797	15.68939876556397	95.12525177001953	-213.6626434326173	952.3203735351565	404.3892211914064	-41.97521591186529	533.9061279296876	387.8152465820314	-31.34120559692387	514.5545654296876	259.5748291015626	-86.90354919433599	487.8815002441407	390.2551269531251	-19.50653076171879	449.5125732421876	332.6671447753907	-332.1413574218751	217.6499938964844	336.0797729492188	-295.8707580566407	206.9051818847657	240.1259307861328	-406.5457763671877	199.7401123046876	283.0375061035156	-242.709213256836	69.6588592529297	258.3841552734375	-242.243881225586	85.26158142089845	312.5865783691406	-273.5107727050782	85.4487991333008	359.4382629394531	-234.8242645263673	1595.401123046875	183.9168548583984	-325.6941223144532	1329.21875	197.5782775878907	-72.74931335449223	1301.899169921875	212.8439941406251	-108.9433898925782	1494.060424804688	199.5088653564454	-343.7864990234376	1361.563720703125	95.18792724609372	-297.1325073242188	1511.621704101563	82.80500793457028	-241.3626403808594	1501.949340820313	-25.93537521362308	-184.329574584961	1502.38623046875	-30.16537666320804	-194.3455963134766	1144.526977539063	-103.388412475586	-227.3337707519532	1136.258178710938	-10.30113506317142	-234.7860260009766	1126.434692382813	-57.05388641357426	-62.2815055847168	885.3347167968752	-66.64092254638675	-134.2428894042969	887.842224121094	-122.5256729125977	-27.20816421508789	806.1008911132815	-64.86030578613283	-119.0062255859375	802.7363281250002	-134.5731658935547	-353.8966369628907	1372.9541015625	285.1372680664062	-310.4878234863282	1520.163696289063	284.5100402832031	-271.9459838867189	1528.35498046875	394.4155578613282	-221.0072631835939	1534.780029296875	411.6097717285157	-279.0991821289064	1189.277709960938	497.2648620605469	-289.4935302734376	1168.604614257813	405.5777587890626	-305.6270141601564	1169.824096679688	462.1988830566407	-155.0971679687501	922.016540527344	495.2109985351564	-237.0110015869142	931.3720703125002	542.0463867187501	-136.9230041503907	830.5323486328127	496.190399169922	-241.6859283447267	843.6297607421877	552.9388427734376	
89	0.88	-93.6829528808594	1064.851440429688	96.3422088623047	-300.1658325195313	1053.816040039063	162.9132843017578	-306.1483459472657	1050.23828125	263.932861328125	-107.7463378906251	1071.8076171875	345.3252258300782	-166.3012390136719	968.9129638671877	28.46121215820311	-159.3235473632813	515.5628051757814	85.81437683105469	-167.4475860595704	496.5534667968751	210.2476043701172	-177.3755493164063	448.495330810547	79.85562133789061	-117.5531539916993	443.1899719238282	149.4416046142578	-225.034652709961	79.55422973632814	125.5629119873047	-200.4480438232423	91.26333618164064	225.4078063964844	-277.4692687988282	21.05005073547364	167.8755340576172	-56.49186325073246	16.6563835144043	207.6644439697266	-62.69445800781254	36.49230575561524	152.7713775634766	-117.0576553344727	15.75485229492188	95.11438751220703	-198.6531982421876	953.6944580078127	405.0173339843751	-20.59841346740728	536.8146362304689	386.9797973632814	-9.963171958923374	517.2612915039064	258.9066467285157	-63.96939849853522	488.7108764648439	389.6068725585939	4.893149852752646	453.0915832519532	332.2432556152344	-297.378631591797	207.1572723388672	336.5703125	-261.0491027832032	198.0237274169922	240.6136169433594	-371.1717529296876	185.3253936767578	283.7444763183594	-199.8281250000001	64.71730041503908	259.2852172851563	-200.3542785644532	80.43125915527345	313.4821472167969	-231.5435028076173	78.98310852050783	360.0876770019532	-222.5867462158204	1595.357055664063	184.0651550292969	-313.2334899902344	1329.081909179688	197.1389617919922	-60.41364669799809	1301.9111328125	212.2361755371094	-96.67053985595709	1494.15625	199.5082702636719	-330.8983764648438	1361.789916992188	94.15773010253903	-284.7179565429688	1511.79345703125	82.47518920898436	-228.5874328613282	1502.68896484375	-26.19976615905765	-171.5412139892578	1503.48583984375	-30.115442276001	-175.4446105957032	1145.894897460938	-105.0427856445313	-208.5608520507813	1136.34423828125	-12.23521900177005	-215.7245178222657	1126.212524414063	-59.03974533081059	-35.04485702514648	891.0566406250002	-67.5815887451172	-106.7585754394531	891.0407714843752	-123.5582046508789	3.370463371276864	813.3887329101565	-66.38991546630861	-88.17174530029297	806.707458496094	-136.0155334472657	-341.7137451171876	1372.869873046875	284.6419982910156	-298.1833801269532	1519.779296875	284.227294921875	-259.9887084960939	1527.86669921875	394.1878356933594	-209.1307067871095	1534.276611328125	411.618621826172	-269.5485839843751	1189.182739257813	496.2047424316407	-278.6185302734376	1168.373413085938	404.0845336914063	-295.4576721191407	1169.771606445313	460.6824035644532	-147.9657287597657	920.469421386719	495.0494689941407	-230.0896606445314	930.7876586914065	541.1912841796876	-130.7304229736329	828.8276367187502	496.461151123047	-235.7044219970704	843.1004638671877	552.2916259765626	
90	0.89	-81.72951507568362	1064.077392578125	95.32975769042969	-287.8759155273438	1053.4072265625	163.4884185791016	-293.5294494628907	1050.06298828125	264.42333984375	-94.71166229248053	1071.905395507813	344.2443237304688	-155.3725738525391	968.166931152344	28.17137527465819	-155.95068359375	515.1816406250001	85.36781311035156	-164.6203155517579	496.2863769531251	209.693115234375	-174.7367858886719	448.3841247558595	79.38449859619139	-114.9392318725586	442.5043029785157	149.0329132080078	-224.8024444580079	79.70650482177736	125.6352920532227	-200.2990264892579	91.44178009033205	225.5006561279297	-277.3783874511719	21.2912826538086	167.9871673583984	-56.33221817016606	16.65776252746582	207.6614685058594	-62.48822402954105	36.49467468261719	152.7136535644532	-116.9670944213868	15.81919288635254	95.09366607666016	-183.8401184082032	954.7415161132815	405.5343627929689	0.04941473528738063	539.2773437500001	386.0588378906251	10.59667110443112	519.5365600585939	258.1575012207032	-41.60631942749029	489.0312500000001	388.8895263671876	28.70391082763669	456.4147949218751	331.7021179199219	-261.7153930664064	195.9484100341797	337.059326171875	-225.388168334961	188.5357360839844	241.1147003173828	-334.5435485839845	170.2139587402344	284.4496765136719	-156.2020263671876	59.72004318237306	260.2362670898438	-157.8084411621094	75.42785644531251	314.4107360839844	-188.8707580566407	72.33824157714845	360.7820129394532	-210.323211669922	1595.10400390625	184.2329406738281	-300.7636413574219	1328.741943359375	196.7514953613282	-48.06085205078129	1301.688842773438	211.6381835937501	-84.36081695556645	1494.02685546875	199.5094909667969	-317.9727478027344	1361.803588867188	93.13366699218747	-272.2765197753907	1511.777587890625	82.18019104003905	-215.7886810302735	1503.263549804688	-26.43381118774417	-158.7533874511719	1504.3935546875	-30.05140686035159	-156.7650451660157	1147.169677734375	-106.6282501220704	-189.8504486083985	1136.37890625	-14.07541561126712	-196.7808685302735	1125.923706054688	-60.94289016723636	-8.047798156738274	897.071716308594	-68.42420959472658	-79.53707885742188	894.4358520507815	-124.3483581542969	33.68916320800783	821.124206542969	-67.74157714843751	-57.59372329711914	810.9863891601565	-137.0916290283203	-329.515350341797	1372.633666992188	284.2340087890625	-285.8305053710939	1519.221435546875	284.0149536132812	-247.9049682617189	1527.176025390625	394.0163269042969	-197.1147003173829	1533.541625976563	411.6393127441407	-259.9244079589845	1188.865234375	495.1255187988282	-267.7016906738282	1167.941528320313	402.6139831542969	-285.2400512695314	1169.47900390625	459.2049560546876	-140.6476135253907	918.8228759765627	495.0617675781251	-223.0604705810548	930.0108642578127	540.2271118164064	-124.1714172363282	827.071716308594	497.0553588867189	-229.5770721435548	842.3703613281252	551.4846191406251	
